# xmcd
#
# Track frame offsets:
#  150
#  30367
#  51412
#  77200
#  100840
#  129677
#  152857
#  180250
#  214267
#  245237
#  276820
#
# Disc length: 4037 seconds
#
# Revision: 6
# Processed by: cddbd v1.5.1PL2 Copyright (c) Steve Scherf et al.
# Submitted via: Collectorz.com_Music_Collector 6.11
#
DISCID=980fc30b,990fc30b
DTITLE=Phil Collins - Both Sides
DYEAR=1993
DGENRE=Rock
TTITLE0=Both Sides Of The Story
TTITLE1=Can't Turn Back The Years
TTITLE2=Everyday
TTITLE3=I've Forgotten Everything
TTITLE4=We're Sons Of Our Fathers
TTITLE5=Can't Find My Way
TTITLE6=Survivors
TTITLE7=We Fly So Close
TTITLE8=There's A Place For Us
TTITLE9=We Wait and We Wonder
TTITLE10=Please Come Out Tonight
EXTD=
EXTT0=
EXTT1=
EXTT2=
EXTT3=
EXTT4=
EXTT5=
EXTT6=
EXTT7=
EXTT8=
EXTT9=
EXTT10=
PLAYORDER=
